<svg width="240" height="240" viewBox="0 0 240 240" fill="none" xmlns="http://www.w3.org/2000/svg">
<circle cx="120" cy="120" r="120" fill="white"/>
<path d="M45.1875 178.383V154.383H52.9336C54.6367 154.383 56.0586 154.692 57.1992 155.309C58.3477 155.918 59.2109 156.766 59.7891 157.852C60.375 158.93 60.668 160.168 60.668 161.567C60.668 162.965 60.375 164.2 59.7891 165.27C59.2109 166.34 58.3516 167.176 57.2109 167.778C56.0703 168.379 54.6563 168.68 52.9688 168.68H46.3711V166.676H52.9102C54.1602 166.676 55.1992 166.469 56.0273 166.055C56.8633 165.641 57.4844 165.051 57.8906 164.286C58.3047 163.52 58.5117 162.614 58.5117 161.567C58.5117 160.52 58.3047 159.606 57.8906 158.825C57.4766 158.036 56.8516 157.426 56.0156 156.997C55.1875 156.567 54.1406 156.352 52.875 156.352H47.3789V178.383H45.1875ZM55.7695 167.555L61.6758 178.383H59.1445L53.2969 167.555H55.7695ZM72.6563 178.758C70.9766 178.758 69.5234 178.368 68.2969 177.586C67.0703 176.797 66.1211 175.708 65.4492 174.317C64.7852 172.918 64.4531 171.309 64.4531 169.489C64.4531 167.676 64.7852 166.067 65.4492 164.661C66.1211 163.247 67.0469 162.141 68.2266 161.344C69.4141 160.54 70.7852 160.137 72.3398 160.137C73.3164 160.137 74.2578 160.317 75.1641 160.676C76.0703 161.028 76.8828 161.571 77.6016 162.305C78.3281 163.032 78.9023 163.95 79.3242 165.059C79.7461 166.161 79.957 167.465 79.957 168.973V170.004H65.8945V168.165H77.8242C77.8242 167.008 77.5898 165.969 77.1211 165.047C76.6602 164.118 76.0156 163.383 75.1875 162.844C74.3672 162.305 73.418 162.036 72.3398 162.036C71.1992 162.036 70.1953 162.34 69.3281 162.95C68.4609 163.559 67.7813 164.364 67.2891 165.364C66.8047 166.364 66.5586 167.458 66.5508 168.645V169.747C66.5508 171.176 66.7969 172.426 67.2891 173.497C67.7891 174.559 68.4961 175.383 69.4102 175.969C70.3242 176.555 71.4063 176.848 72.6563 176.848C73.5078 176.848 74.2539 176.715 74.8945 176.45C75.543 176.184 76.0859 175.829 76.5234 175.383C76.9688 174.93 77.3047 174.434 77.5313 173.895L79.5117 174.54C79.2383 175.297 78.7891 175.997 78.1641 176.637C77.5469 177.278 76.7734 177.793 75.8438 178.184C74.9219 178.567 73.8594 178.758 72.6563 178.758ZM89.5811 178.793C88.4951 178.793 87.5029 178.583 86.6045 178.161C85.7061 177.731 84.9912 177.114 84.46 176.309C83.9287 175.497 83.6631 174.512 83.6631 173.356C83.6631 172.465 83.8311 171.715 84.167 171.106C84.5029 170.497 84.9795 169.997 85.5967 169.606C86.2139 169.215 86.9443 168.907 87.7881 168.68C88.6318 168.454 89.5615 168.278 90.5771 168.153C91.585 168.028 92.4365 167.918 93.1318 167.825C93.835 167.731 94.3701 167.583 94.7373 167.379C95.1045 167.176 95.2881 166.848 95.2881 166.395V165.973C95.2881 164.747 94.9209 163.782 94.1865 163.079C93.46 162.368 92.4131 162.012 91.0459 162.012C89.749 162.012 88.6904 162.297 87.8701 162.868C87.0576 163.438 86.4873 164.11 86.1592 164.883L84.1787 164.168C84.585 163.184 85.1475 162.399 85.8662 161.813C86.585 161.219 87.3896 160.793 88.2803 160.536C89.1709 160.27 90.0732 160.137 90.9873 160.137C91.6748 160.137 92.3896 160.227 93.1318 160.407C93.8818 160.586 94.5771 160.899 95.2178 161.344C95.8584 161.782 96.3779 162.395 96.7764 163.184C97.1748 163.965 97.374 164.958 97.374 166.161V178.383H95.2881V175.536H95.1592C94.9092 176.067 94.5381 176.583 94.0459 177.083C93.5537 177.583 92.9365 177.993 92.1943 178.313C91.4521 178.633 90.5811 178.793 89.5811 178.793ZM89.8623 176.883C90.9717 176.883 91.9326 176.637 92.7451 176.145C93.5576 175.653 94.1826 175 94.6201 174.188C95.0654 173.368 95.2881 172.465 95.2881 171.481V168.879C95.1318 169.028 94.8701 169.161 94.5029 169.278C94.1436 169.395 93.7256 169.5 93.249 169.594C92.7803 169.68 92.3115 169.754 91.8428 169.817C91.374 169.879 90.9521 169.934 90.5771 169.981C89.5615 170.106 88.6943 170.301 87.9756 170.567C87.2568 170.833 86.7061 171.2 86.3232 171.668C85.9404 172.129 85.749 172.723 85.749 173.45C85.749 174.543 86.1396 175.391 86.9209 175.993C87.7021 176.586 88.6826 176.883 89.8623 176.883ZM109.403 178.758C107.927 178.758 106.634 178.368 105.524 177.586C104.415 176.805 103.548 175.715 102.923 174.317C102.306 172.918 101.997 171.29 101.997 169.43C101.997 167.579 102.306 165.958 102.923 164.567C103.548 163.168 104.419 162.083 105.536 161.309C106.653 160.528 107.954 160.137 109.438 160.137C110.532 160.137 111.442 160.333 112.169 160.723C112.896 161.106 113.478 161.583 113.915 162.153C114.353 162.723 114.692 163.278 114.935 163.817H115.122V154.383H117.22V178.383H115.181V175.043H114.935C114.692 175.59 114.349 176.153 113.903 176.731C113.458 177.301 112.868 177.782 112.134 178.172C111.407 178.563 110.497 178.758 109.403 178.758ZM109.649 176.848C110.813 176.848 111.806 176.532 112.626 175.899C113.446 175.258 114.071 174.379 114.501 173.262C114.938 172.137 115.157 170.848 115.157 169.395C115.157 167.958 114.942 166.688 114.513 165.586C114.083 164.477 113.458 163.61 112.638 162.985C111.817 162.352 110.821 162.036 109.649 162.036C108.446 162.036 107.431 162.364 106.603 163.02C105.782 163.668 105.157 164.547 104.728 165.657C104.306 166.766 104.095 168.012 104.095 169.395C104.095 170.793 104.31 172.055 104.739 173.18C105.169 174.305 105.794 175.2 106.614 175.864C107.442 176.52 108.454 176.848 109.649 176.848ZM142.497 154.383V178.383H138.63L127.321 162.036H127.122V178.383H122.774V154.383H126.665L137.962 170.743H138.173V154.383H142.497ZM155.016 178.735C153.211 178.735 151.652 178.36 150.34 177.61C149.035 176.852 148.031 175.782 147.328 174.399C146.625 173.008 146.273 171.372 146.273 169.489C146.273 167.637 146.625 166.012 147.328 164.614C148.039 163.208 149.031 162.114 150.305 161.333C151.578 160.543 153.074 160.149 154.793 160.149C155.902 160.149 156.949 160.329 157.934 160.688C158.926 161.04 159.801 161.586 160.559 162.329C161.324 163.071 161.926 164.016 162.363 165.165C162.801 166.305 163.02 167.665 163.02 169.243V170.543H148.266V167.684H158.953C158.945 166.872 158.77 166.149 158.426 165.516C158.082 164.875 157.602 164.372 156.984 164.004C156.375 163.637 155.664 163.454 154.852 163.454C153.984 163.454 153.223 163.665 152.566 164.086C151.91 164.5 151.398 165.047 151.031 165.727C150.672 166.399 150.488 167.137 150.48 167.942V170.438C150.48 171.485 150.672 172.383 151.055 173.133C151.438 173.875 151.973 174.446 152.66 174.844C153.348 175.235 154.152 175.43 155.074 175.43C155.691 175.43 156.25 175.344 156.75 175.172C157.25 174.993 157.684 174.731 158.051 174.387C158.418 174.043 158.695 173.618 158.883 173.11L162.844 173.555C162.594 174.602 162.117 175.516 161.414 176.297C160.719 177.071 159.828 177.672 158.742 178.102C157.656 178.524 156.414 178.735 155.016 178.735ZM180.835 165.141L176.968 165.563C176.858 165.172 176.667 164.805 176.394 164.461C176.128 164.118 175.769 163.84 175.315 163.629C174.862 163.418 174.308 163.313 173.651 163.313C172.769 163.313 172.026 163.504 171.425 163.887C170.831 164.27 170.538 164.766 170.546 165.375C170.538 165.899 170.729 166.325 171.12 166.653C171.519 166.981 172.175 167.25 173.089 167.461L176.159 168.118C177.862 168.485 179.128 169.067 179.956 169.864C180.792 170.661 181.214 171.704 181.222 172.993C181.214 174.125 180.882 175.125 180.226 175.993C179.577 176.852 178.675 177.524 177.519 178.008C176.362 178.493 175.034 178.735 173.534 178.735C171.331 178.735 169.558 178.274 168.214 177.352C166.87 176.422 166.069 175.129 165.812 173.473L169.948 173.075C170.136 173.887 170.534 174.5 171.144 174.915C171.753 175.329 172.546 175.536 173.522 175.536C174.53 175.536 175.339 175.329 175.948 174.915C176.565 174.5 176.874 173.989 176.874 173.379C176.874 172.864 176.675 172.438 176.276 172.102C175.886 171.766 175.276 171.508 174.448 171.329L171.378 170.684C169.651 170.325 168.374 169.719 167.546 168.868C166.718 168.008 166.308 166.922 166.315 165.61C166.308 164.5 166.608 163.54 167.218 162.727C167.835 161.907 168.69 161.274 169.784 160.829C170.886 160.375 172.155 160.149 173.593 160.149C175.702 160.149 177.362 160.598 178.573 161.497C179.792 162.395 180.546 163.61 180.835 165.141ZM193.708 160.383V163.665H183.36V160.383H193.708ZM185.915 156.071H190.157V172.969C190.157 173.54 190.243 173.977 190.415 174.282C190.595 174.579 190.829 174.782 191.118 174.891C191.407 175 191.728 175.055 192.079 175.055C192.345 175.055 192.587 175.036 192.806 174.997C193.032 174.958 193.204 174.922 193.321 174.891L194.036 178.208C193.81 178.286 193.485 178.372 193.063 178.465C192.649 178.559 192.142 178.614 191.54 178.629C190.478 178.661 189.521 178.5 188.669 178.149C187.817 177.79 187.142 177.235 186.642 176.485C186.149 175.735 185.907 174.797 185.915 173.672V156.071Z" fill="#1D3544"/>
<g filter="url(#filter0_d_40_66)">
<path d="M167.056 120.803L109.746 140.589C106.781 141.612 103.53 141.416 100.71 140.043C97.8895 138.67 95.7299 136.233 94.7063 133.268M94.7063 133.268L81.0961 93.8442C76.4878 80.4956 74.1844 73.8235 75.9517 67.9683C78.7054 57.9244 92.3878 53.9911 102.131 50.6274C106.5 49.1191 111.896 47.5116 116.326 46.0475C125.943 42.882 133.652 40.066 141.654 37.3034C142.531 39.8415 153.906 72.7923 153.906 72.7923C156.784 81.1279 158.223 85.2957 157.992 89.0489C157.843 91.5298 157.208 93.9571 156.121 96.1923C155.034 98.4275 153.518 100.427 151.658 102.076C148.841 104.57 144.673 106.009 136.338 108.886L100.562 121.237C98.1904 122.056 96.2408 123.783 95.1426 126.04C94.0444 128.296 93.8874 130.896 94.7063 133.268Z" stroke="url(#paint0_linear_40_66)" stroke-width="6" stroke-linecap="round" stroke-linejoin="round" shape-rendering="crispEdges"/>
</g>
<path d="M95.5723 131.296L82.2373 92.6688C77.7223 79.5903 75.4655 73.0532 77.1971 67.3164C79.895 57.4757 93.3006 53.622 102.847 50.3263C107.128 48.8485 112.414 47.2735 116.754 45.839C126.178 42.7376 133.73 39.9785 141.571 37.2718C142.429 39.7586 153.574 72.0428 153.574 72.0428C156.394 80.2098 157.804 84.2933 157.578 87.9706C157.432 90.4013 156.809 92.7795 155.744 94.9695C154.68 97.1594 153.194 99.1182 151.372 100.734C148.612 103.178 144.528 104.587 136.361 107.407L101.31 119.507C98.9859 120.31 97.0758 122.003 95.9997 124.213C94.9237 126.424 94.7699 128.971 95.5723 131.296Z" fill="url(#paint1_linear_40_66)"/>
<path d="M99.9511 137.631L160.5 115.5M97.901 134.264L159.215 112.135M96.5189 130.587L158 108.5" stroke="#203847" stroke-width="0.5"/>
<path d="M54.9659 200V192.727H55.63V199.403H59.0959V200H54.9659ZM60.4666 200V194.545H61.1023V200H60.4666ZM60.7898 193.608C60.6596 193.608 60.5483 193.564 60.456 193.477C60.3636 193.387 60.3175 193.279 60.3175 193.153C60.3175 193.028 60.3636 192.921 60.456 192.834C60.5483 192.744 60.6596 192.699 60.7898 192.699C60.92 192.699 61.0313 192.744 61.1236 192.834C61.2159 192.921 61.2621 193.028 61.2621 193.153C61.2621 193.279 61.2159 193.387 61.1236 193.477C61.0313 193.564 60.92 193.608 60.7898 193.608ZM62.9054 200V192.727H63.541V195.586H63.5978C63.6689 195.423 63.7707 195.254 63.9032 195.082C64.0382 194.909 64.2145 194.764 64.4324 194.648C64.6525 194.53 64.9295 194.471 65.2633 194.471C65.7108 194.471 66.1038 194.589 66.4423 194.826C66.7808 195.06 67.0448 195.389 67.2342 195.813C67.4236 196.235 67.5183 196.726 67.5183 197.287C67.5183 197.85 67.4236 198.344 67.2342 198.768C67.0472 199.192 66.7844 199.522 66.4458 199.759C66.1097 199.995 65.719 200.114 65.274 200.114C64.9425 200.114 64.6655 200.054 64.443 199.936C64.2228 199.818 64.0453 199.672 63.9103 199.499C63.7754 199.324 63.6712 199.154 63.5978 198.988H63.5197V200H62.9054ZM63.5304 197.276C63.5304 197.717 63.5955 198.107 63.7257 198.448C63.8583 198.787 64.0476 199.053 64.2939 199.247C64.5424 199.439 64.8431 199.535 65.1958 199.535C65.5581 199.535 65.8646 199.435 66.1156 199.237C66.3665 199.035 66.5571 198.764 66.6873 198.423C66.8175 198.082 66.8826 197.7 66.8826 197.276C66.8826 196.857 66.8175 196.48 66.6873 196.143C66.5595 195.807 66.3701 195.541 66.1191 195.344C65.8682 195.146 65.5604 195.046 65.1958 195.046C64.8407 195.046 64.5389 195.142 64.2903 195.334C64.0441 195.523 63.8559 195.786 63.7257 196.122C63.5955 196.456 63.5304 196.841 63.5304 197.276ZM68.9068 200V194.545H69.5211V195.384H69.5673C69.6762 195.109 69.8656 194.888 70.1355 194.719C70.4077 194.549 70.7155 194.464 71.0588 194.464C71.1109 194.464 71.1689 194.465 71.2328 194.467C71.2967 194.47 71.35 194.472 71.3926 194.474V195.117C71.3642 195.112 71.3145 195.105 71.2434 195.096C71.1724 195.086 71.0955 195.082 71.0126 195.082C70.7285 195.082 70.4752 195.142 70.2527 195.263C70.0325 195.381 69.8585 195.546 69.7306 195.756C69.6028 195.967 69.5389 196.207 69.5389 196.477V200H68.9068ZM73.9947 200.124C73.6656 200.124 73.3649 200.06 73.0927 199.933C72.8204 199.802 72.6038 199.615 72.4428 199.371C72.2818 199.125 72.2013 198.827 72.2013 198.477C72.2013 198.207 72.2522 197.979 72.354 197.795C72.4558 197.61 72.6003 197.459 72.7873 197.34C72.9743 197.222 73.1957 197.128 73.4513 197.06C73.707 196.991 73.9888 196.938 74.2965 196.9C74.6019 196.862 74.86 196.829 75.0707 196.8C75.2837 196.772 75.4459 196.727 75.5572 196.665C75.6684 196.604 75.7241 196.504 75.7241 196.367V196.239C75.7241 195.868 75.6128 195.575 75.3903 195.362C75.1701 195.147 74.8529 195.039 74.4386 195.039C74.0456 195.039 73.7248 195.125 73.4762 195.298C73.23 195.471 73.0572 195.675 72.9577 195.909L72.3576 195.692C72.4807 195.394 72.6512 195.156 72.869 194.979C73.0868 194.799 73.3306 194.67 73.6005 194.592C73.8704 194.511 74.1438 194.471 74.4208 194.471C74.6291 194.471 74.8458 194.498 75.0707 194.553C75.2979 194.607 75.5086 194.702 75.7028 194.837C75.8969 194.969 76.0543 195.155 76.1751 195.394C76.2958 195.631 76.3562 195.932 76.3562 196.296V200H75.7241V199.137H75.685C75.6093 199.298 75.4968 199.454 75.3477 199.606C75.1985 199.757 75.0115 199.882 74.7866 199.979C74.5617 200.076 74.2977 200.124 73.9947 200.124ZM74.0799 199.545C74.4161 199.545 74.7073 199.471 74.9535 199.322C75.1997 199.173 75.3891 198.975 75.5217 198.729C75.6566 198.48 75.7241 198.207 75.7241 197.908V197.12C75.6767 197.165 75.5974 197.205 75.4862 197.241C75.3772 197.276 75.2506 197.308 75.1062 197.337C74.9641 197.363 74.8221 197.385 74.68 197.404C74.538 197.423 74.4102 197.44 74.2965 197.454C73.9888 197.492 73.726 197.551 73.5082 197.631C73.2904 197.712 73.1235 197.823 73.0075 197.965C72.8915 198.105 72.8335 198.285 72.8335 198.505C72.8335 198.836 72.9518 199.093 73.1886 199.276C73.4253 199.455 73.7224 199.545 74.0799 199.545ZM78.0376 200V194.545H78.652V195.384H78.6982C78.8071 195.109 78.9964 194.888 79.2663 194.719C79.5386 194.549 79.8464 194.464 80.1896 194.464C80.2417 194.464 80.2997 194.465 80.3636 194.467C80.4276 194.47 80.4808 194.472 80.5234 194.474V195.117C80.495 195.112 80.4453 195.105 80.3743 195.096C80.3033 195.086 80.2263 195.082 80.1435 195.082C79.8594 195.082 79.6061 195.142 79.3835 195.263C79.1634 195.381 78.9893 195.546 78.8615 195.756C78.7337 195.967 78.6697 196.207 78.6697 196.477V200H78.0376ZM82.2085 202.045C82.083 202.045 81.9658 202.034 81.8569 202.01C81.748 201.986 81.6616 201.96 81.5977 201.932L81.7681 201.374C81.9835 201.441 82.1753 201.464 82.3434 201.445C82.5115 201.429 82.6606 201.353 82.7908 201.218C82.921 201.085 83.0371 200.882 83.1388 200.607L83.3377 200.053L81.3313 194.545H82.0167L83.636 199.165H83.6857L85.305 194.545H85.9904L83.6822 200.863C83.5851 201.126 83.4656 201.345 83.3235 201.52C83.1815 201.697 83.0169 201.829 82.8299 201.914C82.6452 202.002 82.4381 202.045 82.2085 202.045ZM90.0396 200V194.545H90.6539V195.384H90.7108C90.8197 195.102 91.0008 194.88 91.2541 194.719C91.5098 194.556 91.8163 194.474 92.1738 194.474C92.5502 194.474 92.8592 194.563 93.1007 194.741C93.3445 194.916 93.5268 195.157 93.6475 195.465H93.6937C93.8168 195.162 94.0169 194.922 94.2939 194.744C94.5732 194.564 94.9118 194.474 95.3095 194.474C95.8161 194.474 96.2162 194.634 96.5098 194.954C96.8033 195.271 96.9501 195.735 96.9501 196.346V200H96.318V196.346C96.318 195.915 96.2079 195.592 95.9877 195.376C95.7676 195.161 95.4776 195.053 95.1177 195.053C94.7011 195.053 94.3803 195.181 94.1554 195.437C93.9305 195.692 93.818 196.017 93.818 196.41V200H93.1717V196.289C93.1717 195.92 93.0687 195.621 92.8627 195.394C92.6568 195.167 92.3668 195.053 91.9927 195.053C91.7418 195.053 91.5157 195.115 91.3145 195.238C91.1156 195.361 90.9582 195.533 90.8422 195.753C90.7285 195.971 90.6717 196.222 90.6717 196.506V200H90.0396ZM100.147 200.124C99.8179 200.124 99.5173 200.06 99.245 199.933C98.9728 199.802 98.7562 199.615 98.5952 199.371C98.4342 199.125 98.3537 198.827 98.3537 198.477C98.3537 198.207 98.4046 197.979 98.5064 197.795C98.6082 197.61 98.7526 197.459 98.9396 197.34C99.1267 197.222 99.348 197.128 99.6037 197.06C99.8594 196.991 100.141 196.938 100.449 196.9C100.754 196.862 101.012 196.829 101.223 196.8C101.436 196.772 101.598 196.727 101.71 196.665C101.821 196.604 101.876 196.504 101.876 196.367V196.239C101.876 195.868 101.765 195.575 101.543 195.362C101.322 195.147 101.005 195.039 100.591 195.039C100.198 195.039 99.8771 195.125 99.6286 195.298C99.3823 195.471 99.2095 195.675 99.1101 195.909L98.5099 195.692C98.633 195.394 98.8035 195.156 99.0213 194.979C99.2391 194.799 99.483 194.67 99.7528 194.592C100.023 194.511 100.296 194.471 100.573 194.471C100.781 194.471 100.998 194.498 101.223 194.553C101.45 194.607 101.661 194.702 101.855 194.837C102.049 194.969 102.207 195.155 102.327 195.394C102.448 195.631 102.509 195.932 102.509 196.296V200H101.876V199.137H101.837C101.762 199.298 101.649 199.454 101.5 199.606C101.351 199.757 101.164 199.882 100.939 199.979C100.714 200.076 100.45 200.124 100.147 200.124ZM100.232 199.545C100.568 199.545 100.86 199.471 101.106 199.322C101.352 199.173 101.541 198.975 101.674 198.729C101.809 198.48 101.876 198.207 101.876 197.908V197.12C101.829 197.165 101.75 197.205 101.638 197.241C101.53 197.276 101.403 197.308 101.259 197.337C101.116 197.363 100.974 197.385 100.832 197.404C100.69 197.423 100.562 197.44 100.449 197.454C100.141 197.492 99.8783 197.551 99.6605 197.631C99.4427 197.712 99.2758 197.823 99.1598 197.965C99.0438 198.105 98.9858 198.285 98.9858 198.505C98.9858 198.836 99.1042 199.093 99.3409 199.276C99.5777 199.455 99.8748 199.545 100.232 199.545ZM104.822 196.591V200H104.19V194.545H104.804V195.401H104.861C104.989 195.122 105.188 194.898 105.458 194.73C105.73 194.56 106.066 194.474 106.466 194.474C106.833 194.474 107.155 194.551 107.432 194.705C107.712 194.857 107.928 195.08 108.082 195.376C108.238 195.672 108.316 196.036 108.316 196.467V200H107.684V196.506C107.684 196.058 107.559 195.704 107.308 195.444C107.059 195.183 106.725 195.053 106.306 195.053C106.02 195.053 105.766 195.115 105.543 195.238C105.32 195.361 105.144 195.539 105.014 195.771C104.886 196 104.822 196.274 104.822 196.591ZM111.504 200.124C111.175 200.124 110.875 200.06 110.602 199.933C110.33 199.802 110.114 199.615 109.953 199.371C109.792 199.125 109.711 198.827 109.711 198.477C109.711 198.207 109.762 197.979 109.864 197.795C109.966 197.61 110.11 197.459 110.297 197.34C110.484 197.222 110.705 197.128 110.961 197.06C111.217 196.991 111.499 196.938 111.806 196.9C112.112 196.862 112.37 196.829 112.58 196.8C112.794 196.772 112.956 196.727 113.067 196.665C113.178 196.604 113.234 196.504 113.234 196.367V196.239C113.234 195.868 113.123 195.575 112.9 195.362C112.68 195.147 112.363 195.039 111.948 195.039C111.555 195.039 111.235 195.125 110.986 195.298C110.74 195.471 110.567 195.675 110.468 195.909L109.867 195.692C109.99 195.394 110.161 195.156 110.379 194.979C110.597 194.799 110.84 194.67 111.11 194.592C111.38 194.511 111.654 194.471 111.931 194.471C112.139 194.471 112.356 194.498 112.58 194.553C112.808 194.607 113.018 194.702 113.213 194.837C113.407 194.969 113.564 195.155 113.685 195.394C113.806 195.631 113.866 195.932 113.866 196.296V200H113.234V199.137H113.195C113.119 199.298 113.007 199.454 112.857 199.606C112.708 199.757 112.521 199.882 112.296 199.979C112.071 200.076 111.807 200.124 111.504 200.124ZM111.59 199.545C111.926 199.545 112.217 199.471 112.463 199.322C112.709 199.173 112.899 198.975 113.031 198.729C113.166 198.48 113.234 198.207 113.234 197.908V197.12C113.186 197.165 113.107 197.205 112.996 197.241C112.887 197.276 112.76 197.308 112.616 197.337C112.474 197.363 112.332 197.385 112.19 197.404C112.048 197.423 111.92 197.44 111.806 197.454C111.499 197.492 111.236 197.551 111.018 197.631C110.8 197.712 110.633 197.823 110.517 197.965C110.401 198.105 110.343 198.285 110.343 198.505C110.343 198.836 110.462 199.093 110.698 199.276C110.935 199.455 111.232 199.545 111.59 199.545ZM117.628 202.159C117.257 202.159 116.931 202.111 116.652 202.013C116.372 201.919 116.137 201.789 115.945 201.623C115.753 201.457 115.604 201.271 115.498 201.065L116.016 200.724C116.094 200.862 116.198 200.997 116.329 201.129C116.461 201.262 116.633 201.372 116.844 201.46C117.057 201.547 117.318 201.591 117.628 201.591C118.111 201.591 118.501 201.47 118.797 201.229C119.095 200.987 119.244 200.612 119.244 200.103V198.874H119.187C119.114 199.04 119.009 199.206 118.871 199.371C118.734 199.535 118.554 199.671 118.331 199.78C118.111 199.889 117.838 199.943 117.511 199.943C117.076 199.943 116.689 199.835 116.35 199.62C116.014 199.405 115.749 199.097 115.555 198.697C115.363 198.294 115.267 197.815 115.267 197.259C115.267 196.707 115.36 196.222 115.547 195.803C115.737 195.384 116.001 195.057 116.339 194.822C116.678 194.588 117.072 194.471 117.522 194.471C117.856 194.471 118.133 194.53 118.353 194.648C118.573 194.764 118.749 194.909 118.882 195.082C119.017 195.254 119.122 195.423 119.198 195.586H119.262V194.545H119.88V200.142C119.88 200.604 119.782 200.984 119.585 201.282C119.389 201.58 119.121 201.8 118.782 201.942C118.444 202.087 118.059 202.159 117.628 202.159ZM117.586 199.364C117.936 199.364 118.236 199.28 118.484 199.112C118.733 198.942 118.923 198.698 119.056 198.381C119.189 198.063 119.255 197.686 119.255 197.248C119.255 196.822 119.19 196.444 119.059 196.115C118.929 195.784 118.74 195.523 118.491 195.334C118.245 195.142 117.943 195.046 117.586 195.046C117.221 195.046 116.913 195.144 116.662 195.341C116.412 195.537 116.222 195.803 116.094 196.136C115.966 196.468 115.903 196.838 115.903 197.248C115.903 197.665 115.968 198.033 116.098 198.352C116.228 198.67 116.419 198.918 116.67 199.098C116.921 199.276 117.226 199.364 117.586 199.364ZM123.759 200.114C123.25 200.114 122.809 199.995 122.438 199.759C122.066 199.519 121.778 199.189 121.575 198.768C121.373 198.344 121.273 197.856 121.273 197.305C121.273 196.755 121.373 196.268 121.575 195.842C121.778 195.413 122.059 195.078 122.416 194.837C122.776 194.593 123.192 194.471 123.663 194.471C123.959 194.471 124.244 194.525 124.518 194.634C124.793 194.741 125.039 194.905 125.257 195.128C125.477 195.348 125.651 195.626 125.779 195.962C125.907 196.296 125.971 196.692 125.971 197.148V197.461H121.71V196.903H125.325C125.325 196.553 125.254 196.238 125.112 195.959C124.972 195.677 124.777 195.455 124.526 195.291C124.277 195.128 123.989 195.046 123.663 195.046C123.317 195.046 123.013 195.138 122.75 195.323C122.487 195.508 122.281 195.752 122.132 196.055C121.985 196.358 121.911 196.689 121.908 197.049V197.383C121.908 197.816 121.983 198.195 122.132 198.519C122.284 198.841 122.498 199.091 122.775 199.268C123.052 199.446 123.38 199.535 123.759 199.535C124.017 199.535 124.243 199.495 124.437 199.414C124.633 199.334 124.798 199.226 124.93 199.091C125.065 198.954 125.167 198.803 125.236 198.64L125.836 198.835C125.753 199.065 125.617 199.277 125.428 199.471C125.241 199.665 125.006 199.821 124.724 199.94C124.445 200.056 124.123 200.114 123.759 200.114ZM127.364 200V194.545H127.978V195.384H128.035C128.144 195.102 128.325 194.88 128.578 194.719C128.834 194.556 129.141 194.474 129.498 194.474C129.874 194.474 130.183 194.563 130.425 194.741C130.669 194.916 130.851 195.157 130.972 195.465H131.018C131.141 195.162 131.341 194.922 131.618 194.744C131.897 194.564 132.236 194.474 132.634 194.474C133.14 194.474 133.54 194.634 133.834 194.954C134.128 195.271 134.274 195.735 134.274 196.346V200H133.642V196.346C133.642 195.915 133.532 195.592 133.312 195.376C133.092 195.161 132.802 195.053 132.442 195.053C132.025 195.053 131.704 195.181 131.48 195.437C131.255 195.692 131.142 196.017 131.142 196.41V200H130.496V196.289C130.496 195.92 130.393 195.621 130.187 195.394C129.981 195.167 129.691 195.053 129.317 195.053C129.066 195.053 128.84 195.115 128.639 195.238C128.44 195.361 128.282 195.533 128.166 195.753C128.053 195.971 127.996 196.222 127.996 196.506V200H127.364ZM138.153 200.114C137.644 200.114 137.204 199.995 136.832 199.759C136.46 199.519 136.173 199.189 135.969 198.768C135.768 198.344 135.667 197.856 135.667 197.305C135.667 196.755 135.768 196.268 135.969 195.842C136.173 195.413 136.453 195.078 136.811 194.837C137.171 194.593 137.586 194.471 138.057 194.471C138.353 194.471 138.638 194.525 138.913 194.634C139.188 194.741 139.434 194.905 139.652 195.128C139.872 195.348 140.046 195.626 140.174 195.962C140.301 196.296 140.365 196.692 140.365 197.148V197.461H136.104V196.903H139.719C139.719 196.553 139.648 196.238 139.506 195.959C139.366 195.677 139.171 195.455 138.92 195.291C138.672 195.128 138.384 195.046 138.057 195.046C137.712 195.046 137.407 195.138 137.145 195.323C136.882 195.508 136.676 195.752 136.527 196.055C136.38 196.358 136.305 196.689 136.303 197.049V197.383C136.303 197.816 136.377 198.195 136.527 198.519C136.678 198.841 136.892 199.091 137.169 199.268C137.446 199.446 137.774 199.535 138.153 199.535C138.411 199.535 138.637 199.495 138.831 199.414C139.028 199.334 139.192 199.226 139.325 199.091C139.46 198.954 139.562 198.803 139.63 198.64L140.23 198.835C140.148 199.065 140.011 199.277 139.822 199.471C139.635 199.665 139.401 199.821 139.119 199.94C138.84 200.056 138.518 200.114 138.153 200.114ZM142.39 196.591V200H141.758V194.545H142.373V195.401H142.43C142.557 195.122 142.756 194.898 143.026 194.73C143.298 194.56 143.635 194.474 144.035 194.474C144.402 194.474 144.724 194.551 145.001 194.705C145.28 194.857 145.497 195.08 145.65 195.376C145.807 195.672 145.885 196.036 145.885 196.467V200H145.253V196.506C145.253 196.058 145.127 195.704 144.876 195.444C144.628 195.183 144.294 195.053 143.875 195.053C143.588 195.053 143.334 195.115 143.111 195.238C142.889 195.361 142.712 195.539 142.582 195.771C142.454 196 142.39 196.274 142.39 196.591ZM149.698 194.545V195.096H147.095V194.545H149.698ZM147.908 193.239H148.544V198.576C148.544 198.803 148.583 198.982 148.661 199.112C148.739 199.24 148.841 199.331 148.966 199.386C149.092 199.438 149.225 199.464 149.368 199.464C149.45 199.464 149.521 199.459 149.581 199.45C149.64 199.438 149.692 199.426 149.737 199.414L149.872 199.986C149.81 200.009 149.734 200.031 149.645 200.05C149.555 200.071 149.443 200.082 149.311 200.082C149.079 200.082 148.855 200.031 148.64 199.929C148.426 199.827 148.251 199.676 148.114 199.474C147.977 199.273 147.908 199.023 147.908 198.725V193.239ZM157.611 195.742L157.032 195.906C156.975 195.742 156.894 195.594 156.79 195.462C156.686 195.329 156.55 195.224 156.382 195.146C156.216 195.067 156.01 195.028 155.764 195.028C155.395 195.028 155.092 195.116 154.855 195.291C154.618 195.466 154.5 195.692 154.5 195.969C154.5 196.204 154.58 196.394 154.741 196.541C154.905 196.686 155.156 196.8 155.494 196.886L156.318 197.088C156.775 197.199 157.117 197.376 157.344 197.617C157.574 197.859 157.689 198.162 157.689 198.526C157.689 198.834 157.604 199.107 157.433 199.347C157.263 199.586 157.025 199.774 156.719 199.911C156.416 200.046 156.065 200.114 155.665 200.114C155.132 200.114 154.693 199.994 154.347 199.755C154.001 199.513 153.78 199.165 153.683 198.711L154.29 198.562C154.368 198.886 154.521 199.131 154.748 199.297C154.978 199.463 155.28 199.545 155.654 199.545C156.073 199.545 156.408 199.452 156.659 199.265C156.91 199.076 157.035 198.839 157.035 198.555C157.035 198.335 156.962 198.15 156.815 198.001C156.668 197.849 156.446 197.738 156.148 197.667L155.256 197.454C154.783 197.34 154.432 197.16 154.205 196.914C153.978 196.668 153.864 196.362 153.864 195.998C153.864 195.697 153.946 195.433 154.109 195.206C154.273 194.976 154.497 194.796 154.784 194.666C155.07 194.536 155.397 194.471 155.764 194.471C156.264 194.471 156.662 194.585 156.961 194.812C157.261 195.037 157.478 195.347 157.611 195.742ZM159.513 202.045C159.388 202.045 159.27 202.034 159.162 202.01C159.053 201.986 158.966 201.96 158.902 201.932L159.073 201.374C159.288 201.441 159.48 201.464 159.648 201.445C159.816 201.429 159.965 201.353 160.096 201.218C160.226 201.085 160.342 200.882 160.444 200.607L160.642 200.053L158.636 194.545H159.321L160.941 199.165H160.99L162.61 194.545H163.295L160.987 200.863C160.89 201.126 160.77 201.345 160.628 201.52C160.486 201.697 160.322 201.829 160.135 201.914C159.95 202.002 159.743 202.045 159.513 202.045ZM168.197 195.742L167.618 195.906C167.561 195.742 167.48 195.594 167.376 195.462C167.272 195.329 167.136 195.224 166.968 195.146C166.802 195.067 166.596 195.028 166.35 195.028C165.981 195.028 165.678 195.116 165.441 195.291C165.204 195.466 165.086 195.692 165.086 195.969C165.086 196.204 165.166 196.394 165.327 196.541C165.491 196.686 165.742 196.8 166.08 196.886L166.904 197.088C167.361 197.199 167.703 197.376 167.93 197.617C168.16 197.859 168.275 198.162 168.275 198.526C168.275 198.834 168.189 199.107 168.019 199.347C167.849 199.586 167.611 199.774 167.305 199.911C167.002 200.046 166.651 200.114 166.251 200.114C165.718 200.114 165.279 199.994 164.933 199.755C164.587 199.513 164.366 199.165 164.269 198.711L164.876 198.562C164.954 198.886 165.107 199.131 165.334 199.297C165.564 199.463 165.866 199.545 166.24 199.545C166.659 199.545 166.994 199.452 167.245 199.265C167.496 199.076 167.621 198.839 167.621 198.555C167.621 198.335 167.548 198.15 167.401 198.001C167.254 197.849 167.032 197.738 166.733 197.667L165.842 197.454C165.369 197.34 165.018 197.16 164.791 196.914C164.564 196.668 164.45 196.362 164.45 195.998C164.45 195.697 164.532 195.433 164.695 195.206C164.858 194.976 165.083 194.796 165.37 194.666C165.656 194.536 165.983 194.471 166.35 194.471C166.849 194.471 167.248 194.585 167.547 194.812C167.847 195.037 168.064 195.347 168.197 195.742ZM171.807 194.545V195.096H169.204V194.545H171.807ZM170.017 193.239H170.653V198.576C170.653 198.803 170.692 198.982 170.77 199.112C170.848 199.24 170.95 199.331 171.076 199.386C171.201 199.438 171.335 199.464 171.477 199.464C171.56 199.464 171.631 199.459 171.69 199.45C171.749 199.438 171.801 199.426 171.846 199.414L171.981 199.986C171.92 200.009 171.844 200.031 171.754 200.05C171.664 200.071 171.553 200.082 171.42 200.082C171.188 200.082 170.964 200.031 170.749 199.929C170.536 199.827 170.361 199.676 170.223 199.474C170.086 199.273 170.017 199.023 170.017 198.725V193.239ZM175.389 200.114C174.88 200.114 174.44 199.995 174.068 199.759C173.697 199.519 173.409 199.189 173.205 198.768C173.004 198.344 172.904 197.856 172.904 197.305C172.904 196.755 173.004 196.268 173.205 195.842C173.409 195.413 173.69 195.078 174.047 194.837C174.407 194.593 174.822 194.471 175.294 194.471C175.589 194.471 175.875 194.525 176.149 194.634C176.424 194.741 176.67 194.905 176.888 195.128C177.108 195.348 177.282 195.626 177.41 195.962C177.538 196.296 177.602 196.692 177.602 197.148V197.461H173.34V196.903H176.955C176.955 196.553 176.884 196.238 176.742 195.959C176.603 195.677 176.407 195.455 176.156 195.291C175.908 195.128 175.62 195.046 175.294 195.046C174.948 195.046 174.644 195.138 174.381 195.323C174.118 195.508 173.912 195.752 173.763 196.055C173.616 196.358 173.542 196.689 173.539 197.049V197.383C173.539 197.816 173.614 198.195 173.763 198.519C173.914 198.841 174.129 199.091 174.406 199.268C174.683 199.446 175.011 199.535 175.389 199.535C175.647 199.535 175.874 199.495 176.068 199.414C176.264 199.334 176.429 199.226 176.561 199.091C176.696 198.954 176.798 198.803 176.867 198.64L177.467 198.835C177.384 199.065 177.248 199.277 177.058 199.471C176.871 199.665 176.637 199.821 176.355 199.94C176.076 200.056 175.754 200.114 175.389 200.114ZM178.995 200V194.545H179.609V195.384H179.666C179.775 195.102 179.956 194.88 180.209 194.719C180.465 194.556 180.771 194.474 181.129 194.474C181.505 194.474 181.814 194.563 182.056 194.741C182.3 194.916 182.482 195.157 182.603 195.465H182.649C182.772 195.162 182.972 194.922 183.249 194.744C183.528 194.564 183.867 194.474 184.265 194.474C184.771 194.474 185.171 194.634 185.465 194.954C185.758 195.271 185.905 195.735 185.905 196.346V200H185.273V196.346C185.273 195.915 185.163 195.592 184.943 195.376C184.723 195.161 184.433 195.053 184.073 195.053C183.656 195.053 183.335 195.181 183.11 195.437C182.886 195.692 182.773 196.017 182.773 196.41V200H182.127V196.289C182.127 195.92 182.024 195.621 181.818 195.394C181.612 195.167 181.322 195.053 180.948 195.053C180.697 195.053 180.471 195.115 180.27 195.238C180.071 195.361 179.913 195.533 179.797 195.753C179.684 195.971 179.627 196.222 179.627 196.506V200H178.995Z" fill="#273F4F"/>
<circle cx="48.5" cy="197.5" r="1.5" fill="#243C4C"/>
<circle cx="191.5" cy="197.5" r="1.5" fill="#243C4C"/>
<path d="M74.4528 80.3299L74.8905 80.0378C77.5437 78.2668 80.6009 77.194 83.7789 76.9187V76.9187L84.3118 78.7407V78.7407C81.107 79.3705 78.0182 80.49 75.1539 82.0597L74.9857 82.1519L74.4528 80.3299Z" fill="white"/>
<path d="M77.2538 87.5784L77.6915 87.2863C80.3447 85.5154 83.4019 84.4426 86.5799 84.1672V84.1672L87.1128 85.9892V85.9892C83.908 86.6191 80.8192 87.7385 77.955 89.3082L77.7868 89.4004L77.2538 87.5784Z" fill="white"/>
<path d="M75.7712 83.9808L76.2088 83.6886C78.862 81.9177 81.9192 80.8449 85.0973 80.5696V80.5696L85.6302 82.3916V82.3916C82.4253 83.0214 79.3365 84.1408 76.4723 85.7106L76.3041 85.8027L75.7712 83.9808Z" fill="white"/>
<defs>
<filter id="filter0_d_40_66" x="69.3567" y="34.3025" width="100.7" height="114.934" filterUnits="userSpaceOnUse" color-interpolation-filters="sRGB">
<feFlood flood-opacity="0" result="BackgroundImageFix"/>
<feColorMatrix in="SourceAlpha" type="matrix" values="0 0 0 0 0 0 0 0 0 0 0 0 0 0 0 0 0 0 127 0" result="hardAlpha"/>
<feOffset dx="-3" dy="5"/>
<feComposite in2="hardAlpha" operator="out"/>
<feColorMatrix type="matrix" values="0 0 0 0 0 0 0 0 0 0 0 0 0 0 0 0 0 0 0.25 0"/>
<feBlend mode="normal" in2="BackgroundImageFix" result="effect1_dropShadow_40_66"/>
<feBlend mode="normal" in="SourceGraphic" in2="effect1_dropShadow_40_66" result="shape"/>
</filter>
<linearGradient id="paint0_linear_40_66" x1="96.2804" y1="52.63" x2="136.652" y2="132.453" gradientUnits="userSpaceOnUse">
<stop stop-color="#2F4858"/>
<stop offset="1" stop-color="#1D3544"/>
</linearGradient>
<linearGradient id="paint1_linear_40_66" x1="98.8627" y1="51.6848" x2="138.164" y2="116.595" gradientUnits="userSpaceOnUse">
<stop stop-color="#2F4858"/>
<stop offset="1" stop-color="#1D3544"/>
</linearGradient>
</defs>
</svg>
