<svg width="240" height="240" viewBox="0 0 240 240" fill="none" xmlns="http://www.w3.org/2000/svg">
<circle cx="120" cy="120" r="120" fill="white"/>
<path d="M33.1875 178.383V154.383H40.9336C42.6367 154.383 44.0586 154.692 45.1992 155.309C46.3477 155.918 47.2109 156.766 47.7891 157.852C48.375 158.93 48.668 160.168 48.668 161.567C48.668 162.965 48.375 164.2 47.7891 165.27C47.2109 166.34 46.3516 167.176 45.2109 167.778C44.0703 168.379 42.6563 168.68 40.9688 168.68H34.3711V166.676H40.9102C42.1602 166.676 43.1992 166.469 44.0273 166.055C44.8633 165.641 45.4844 165.051 45.8906 164.286C46.3047 163.52 46.5117 162.614 46.5117 161.567C46.5117 160.52 46.3047 159.606 45.8906 158.825C45.4766 158.036 44.8516 157.426 44.0156 156.997C43.1875 156.567 42.1406 156.352 40.875 156.352H35.3789V178.383H33.1875ZM43.7695 167.555L49.6758 178.383H47.1445L41.2969 167.555H43.7695ZM60.6563 178.758C58.9766 178.758 57.5234 178.368 56.2969 177.586C55.0703 176.797 54.1211 175.708 53.4492 174.317C52.7852 172.918 52.4531 171.309 52.4531 169.489C52.4531 167.676 52.7852 166.067 53.4492 164.661C54.1211 163.247 55.0469 162.141 56.2266 161.344C57.4141 160.54 58.7852 160.137 60.3398 160.137C61.3164 160.137 62.2578 160.317 63.1641 160.676C64.0703 161.028 64.8828 161.571 65.6016 162.305C66.3281 163.032 66.9023 163.95 67.3242 165.059C67.7461 166.161 67.957 167.465 67.957 168.973V170.004H53.8945V168.165H65.8242C65.8242 167.008 65.5898 165.969 65.1211 165.047C64.6602 164.118 64.0156 163.383 63.1875 162.844C62.3672 162.305 61.418 162.036 60.3398 162.036C59.1992 162.036 58.1953 162.34 57.3281 162.95C56.4609 163.559 55.7813 164.364 55.2891 165.364C54.8047 166.364 54.5586 167.458 54.5508 168.645V169.747C54.5508 171.176 54.7969 172.426 55.2891 173.497C55.7891 174.559 56.4961 175.383 57.4102 175.969C58.3242 176.555 59.4063 176.848 60.6563 176.848C61.5078 176.848 62.2539 176.715 62.8945 176.45C63.543 176.184 64.0859 175.829 64.5234 175.383C64.9688 174.93 65.3047 174.434 65.5313 173.895L67.5117 174.54C67.2383 175.297 66.7891 175.997 66.1641 176.637C65.5469 177.278 64.7734 177.793 63.8438 178.184C62.9219 178.567 61.8594 178.758 60.6563 178.758ZM77.5811 178.793C76.4951 178.793 75.5029 178.583 74.6045 178.161C73.7061 177.731 72.9912 177.114 72.46 176.309C71.9287 175.497 71.6631 174.512 71.6631 173.356C71.6631 172.465 71.8311 171.715 72.167 171.106C72.5029 170.497 72.9795 169.997 73.5967 169.606C74.2139 169.215 74.9443 168.907 75.7881 168.68C76.6318 168.454 77.5615 168.278 78.5771 168.153C79.585 168.028 80.4365 167.918 81.1318 167.825C81.835 167.731 82.3701 167.583 82.7373 167.379C83.1045 167.176 83.2881 166.848 83.2881 166.395V165.973C83.2881 164.747 82.9209 163.782 82.1865 163.079C81.46 162.368 80.4131 162.012 79.0459 162.012C77.749 162.012 76.6904 162.297 75.8701 162.868C75.0576 163.438 74.4873 164.11 74.1592 164.883L72.1787 164.168C72.585 163.184 73.1475 162.399 73.8662 161.813C74.585 161.219 75.3896 160.793 76.2803 160.536C77.1709 160.27 78.0732 160.137 78.9873 160.137C79.6748 160.137 80.3896 160.227 81.1318 160.407C81.8818 160.586 82.5771 160.899 83.2178 161.344C83.8584 161.782 84.3779 162.395 84.7764 163.184C85.1748 163.965 85.374 164.958 85.374 166.161V178.383H83.2881V175.536H83.1592C82.9092 176.067 82.5381 176.583 82.0459 177.083C81.5537 177.583 80.9365 177.993 80.1943 178.313C79.4521 178.633 78.5811 178.793 77.5811 178.793ZM77.8623 176.883C78.9717 176.883 79.9326 176.637 80.7451 176.145C81.5576 175.653 82.1826 175 82.6201 174.188C83.0654 173.368 83.2881 172.465 83.2881 171.481V168.879C83.1318 169.028 82.8701 169.161 82.5029 169.278C82.1436 169.395 81.7256 169.5 81.249 169.594C80.7803 169.68 80.3115 169.754 79.8428 169.817C79.374 169.879 78.9521 169.934 78.5771 169.981C77.5615 170.106 76.6943 170.301 75.9756 170.567C75.2568 170.833 74.7061 171.2 74.3232 171.668C73.9404 172.129 73.749 172.723 73.749 173.45C73.749 174.543 74.1396 175.391 74.9209 175.993C75.7021 176.586 76.6826 176.883 77.8623 176.883ZM97.4033 178.758C95.9268 178.758 94.6338 178.368 93.5244 177.586C92.415 176.805 91.5479 175.715 90.9229 174.317C90.3057 172.918 89.9971 171.29 89.9971 169.43C89.9971 167.579 90.3057 165.958 90.9229 164.567C91.5479 163.168 92.4189 162.083 93.5361 161.309C94.6533 160.528 95.9541 160.137 97.4385 160.137C98.5322 160.137 99.4424 160.333 100.169 160.723C100.896 161.106 101.478 161.583 101.915 162.153C102.353 162.723 102.692 163.278 102.935 163.817H103.122V154.383H105.22V178.383H103.181V175.043H102.935C102.692 175.59 102.349 176.153 101.903 176.731C101.458 177.301 100.868 177.782 100.134 178.172C99.4072 178.563 98.4971 178.758 97.4033 178.758ZM97.6494 176.848C98.8135 176.848 99.8057 176.532 100.626 175.899C101.446 175.258 102.071 174.379 102.501 173.262C102.938 172.137 103.157 170.848 103.157 169.395C103.157 167.958 102.942 166.688 102.513 165.586C102.083 164.477 101.458 163.61 100.638 162.985C99.8174 162.352 98.8213 162.036 97.6494 162.036C96.4463 162.036 95.4307 162.364 94.6025 163.02C93.7822 163.668 93.1572 164.547 92.7275 165.657C92.3057 166.766 92.0947 168.012 92.0947 169.395C92.0947 170.793 92.3096 172.055 92.7393 173.18C93.1689 174.305 93.7939 175.2 94.6143 175.864C95.4424 176.52 96.4541 176.848 97.6494 176.848Z" fill="#1D3544"/>
<path d="M130.497 154.383V178.383H126.63L115.321 162.036H115.122V178.383H110.774V154.383H114.665L125.962 170.743H126.173V154.383H130.497ZM143.016 178.735C141.211 178.735 139.652 178.36 138.34 177.61C137.035 176.852 136.031 175.782 135.328 174.399C134.625 173.008 134.273 171.372 134.273 169.489C134.273 167.637 134.625 166.012 135.328 164.614C136.039 163.208 137.031 162.114 138.305 161.333C139.578 160.543 141.074 160.149 142.793 160.149C143.902 160.149 144.949 160.329 145.934 160.688C146.926 161.04 147.801 161.586 148.559 162.329C149.324 163.071 149.926 164.016 150.363 165.165C150.801 166.305 151.02 167.665 151.02 169.243V170.543H136.266V167.684H146.953C146.945 166.872 146.77 166.149 146.426 165.516C146.082 164.875 145.602 164.372 144.984 164.004C144.375 163.637 143.664 163.454 142.852 163.454C141.984 163.454 141.223 163.665 140.566 164.086C139.91 164.5 139.398 165.047 139.031 165.727C138.672 166.399 138.488 167.137 138.48 167.942V170.438C138.48 171.485 138.672 172.383 139.055 173.133C139.438 173.875 139.973 174.446 140.66 174.844C141.348 175.235 142.152 175.43 143.074 175.43C143.691 175.43 144.25 175.344 144.75 175.172C145.25 174.993 145.684 174.731 146.051 174.387C146.418 174.043 146.695 173.618 146.883 173.11L150.844 173.555C150.594 174.602 150.117 175.516 149.414 176.297C148.719 177.071 147.828 177.672 146.742 178.102C145.656 178.524 144.414 178.735 143.016 178.735ZM168.835 165.141L164.968 165.563C164.858 165.172 164.667 164.805 164.394 164.461C164.128 164.118 163.769 163.84 163.315 163.629C162.862 163.418 162.308 163.313 161.651 163.313C160.769 163.313 160.026 163.504 159.425 163.887C158.831 164.27 158.538 164.766 158.546 165.375C158.538 165.899 158.729 166.325 159.12 166.653C159.519 166.981 160.175 167.25 161.089 167.461L164.159 168.118C165.862 168.485 167.128 169.067 167.956 169.864C168.792 170.661 169.214 171.704 169.222 172.993C169.214 174.125 168.882 175.125 168.226 175.993C167.577 176.852 166.675 177.524 165.519 178.008C164.362 178.493 163.034 178.735 161.534 178.735C159.331 178.735 157.558 178.274 156.214 177.352C154.87 176.422 154.069 175.129 153.812 173.473L157.948 173.075C158.136 173.887 158.534 174.5 159.144 174.915C159.753 175.329 160.546 175.536 161.522 175.536C162.53 175.536 163.339 175.329 163.948 174.915C164.565 174.5 164.874 173.989 164.874 173.379C164.874 172.864 164.675 172.438 164.276 172.102C163.886 171.766 163.276 171.508 162.448 171.329L159.378 170.684C157.651 170.325 156.374 169.719 155.546 168.868C154.718 168.008 154.308 166.922 154.315 165.61C154.308 164.5 154.608 163.54 155.218 162.727C155.835 161.907 156.69 161.274 157.784 160.829C158.886 160.375 160.155 160.149 161.593 160.149C163.702 160.149 165.362 160.598 166.573 161.497C167.792 162.395 168.546 163.61 168.835 165.141ZM181.708 160.383V163.665H171.36V160.383H181.708ZM173.915 156.071H178.157V172.969C178.157 173.54 178.243 173.977 178.415 174.282C178.595 174.579 178.829 174.782 179.118 174.891C179.407 175 179.728 175.055 180.079 175.055C180.345 175.055 180.587 175.036 180.806 174.997C181.032 174.958 181.204 174.922 181.321 174.891L182.036 178.208C181.81 178.286 181.485 178.372 181.063 178.465C180.649 178.559 180.142 178.614 179.54 178.629C178.478 178.661 177.521 178.5 176.669 178.149C175.817 177.79 175.142 177.235 174.642 176.485C174.149 175.735 173.907 174.797 173.915 173.672V156.071Z" fill="#173C53"/>
<path d="M155.664 120.802L98.3535 140.587C95.3884 141.61 92.1382 141.414 89.3178 140.041C86.4974 138.669 84.3378 136.232 83.3142 133.267M83.3142 133.267L69.704 93.8425C65.0957 80.4939 62.7923 73.8218 64.5597 67.9666C67.3133 57.9227 80.9957 53.9894 90.7393 50.6257C95.1083 49.1174 100.504 47.5098 104.933 46.0458C114.551 42.8803 122.26 40.0643 130.262 37.3016C131.138 39.8398 142.514 72.7905 142.514 72.7905C145.392 81.1261 146.83 85.2939 146.6 89.0472C146.451 91.5281 145.815 93.9554 144.729 96.1906C143.642 98.4258 142.126 100.425 140.266 102.074C137.449 104.568 133.281 106.007 124.945 108.885L89.1704 121.235C86.7983 122.054 84.8488 123.782 83.7505 126.038C82.6523 128.294 82.4953 130.895 83.3142 133.267Z" stroke="#173C53" stroke-width="6" stroke-linecap="round" stroke-linejoin="round"/>
<path d="M203.375 146.865C203.375 147.091 203.308 147.312 203.182 147.5C203.056 147.688 202.878 147.835 202.669 147.921C202.46 148.008 202.23 148.031 202.008 147.987C201.786 147.942 201.582 147.833 201.422 147.674C201.262 147.514 201.153 147.31 201.109 147.088C201.065 146.866 201.088 146.636 201.174 146.427C201.261 146.218 201.407 146.039 201.596 145.914C201.784 145.788 202.005 145.721 202.231 145.721C202.534 145.721 202.825 145.841 203.04 146.056C203.254 146.27 203.375 146.561 203.375 146.865ZM209.475 148.009C209.475 148.134 209.444 148.258 209.385 148.369C209.326 148.479 209.24 148.574 209.136 148.643L207.187 149.942V151.821C207.185 154.449 206.139 156.969 204.281 158.828C202.423 160.686 199.903 161.731 197.275 161.734H188.887C188.599 161.734 188.318 161.653 188.075 161.5C187.832 161.347 187.636 161.128 187.512 160.869C187.388 160.61 187.339 160.322 187.372 160.036C187.404 159.751 187.517 159.48 187.696 159.256L187.706 159.244L195.749 149.594V147.712C195.749 144.527 198.303 141.924 201.441 141.908H201.468C202.683 141.908 203.867 142.294 204.847 143.012C205.828 143.729 206.554 144.74 206.921 145.898L209.136 147.374C209.24 147.443 209.326 147.538 209.385 147.649C209.444 147.759 209.475 147.883 209.475 148.009ZM207.338 148.009L205.843 147.012C205.688 146.908 205.575 146.75 205.528 146.569C205.294 145.671 204.768 144.876 204.034 144.308C203.299 143.741 202.397 143.433 201.468 143.433H201.447C199.147 143.445 197.275 145.364 197.275 147.712V149.869C197.275 150.048 197.212 150.221 197.098 150.358L188.887 160.209H191.451L198.212 152.096C198.276 152.017 198.354 151.951 198.443 151.902C198.532 151.854 198.63 151.824 198.731 151.814C198.832 151.803 198.934 151.813 199.031 151.843C199.128 151.873 199.218 151.921 199.296 151.986C199.374 152.051 199.438 152.131 199.485 152.221C199.531 152.311 199.56 152.41 199.568 152.511C199.576 152.612 199.564 152.713 199.532 152.81C199.501 152.906 199.45 152.995 199.384 153.072L193.438 160.209H197.275C199.498 160.206 201.63 159.322 203.203 157.749C204.775 156.177 205.66 154.045 205.662 151.821V149.534C205.662 149.408 205.693 149.284 205.752 149.174C205.812 149.063 205.897 148.968 206.002 148.899L207.338 148.009Z" fill="#173C53"/>
<path d="M203.375 146.865C203.375 147.091 203.308 147.312 203.182 147.5C203.056 147.688 202.878 147.835 202.669 147.921C202.46 148.008 202.23 148.031 202.008 147.987C201.786 147.942 201.582 147.833 201.422 147.674C201.262 147.514 201.153 147.31 201.109 147.088C201.065 146.866 201.088 146.636 201.174 146.427C201.261 146.218 201.407 146.039 201.596 145.914C201.784 145.788 202.005 145.721 202.231 145.721C202.534 145.721 202.825 145.841 203.04 146.056C203.254 146.27 203.375 146.561 203.375 146.865ZM209.475 148.009C209.475 148.134 209.444 148.258 209.385 148.369C209.326 148.479 209.24 148.574 209.136 148.643L207.187 149.942V151.821C207.185 154.449 206.139 156.969 204.281 158.828C202.423 160.686 199.903 161.731 197.275 161.734H188.887C188.599 161.734 188.318 161.653 188.075 161.5C187.832 161.347 187.636 161.128 187.512 160.869C187.388 160.61 187.339 160.322 187.372 160.036C187.404 159.751 187.517 159.48 187.696 159.256L187.706 159.244L195.749 149.594V147.712C195.749 144.527 198.303 141.924 201.441 141.908H201.468C202.683 141.908 203.867 142.294 204.847 143.012C205.828 143.729 206.554 144.74 206.921 145.898L209.136 147.374C209.24 147.443 209.326 147.538 209.385 147.649C209.444 147.759 209.475 147.883 209.475 148.009ZM207.338 148.009L205.843 147.012C205.688 146.908 205.575 146.75 205.528 146.569C205.294 145.671 204.768 144.876 204.034 144.308C203.299 143.741 202.397 143.433 201.468 143.433H201.447C199.147 143.445 197.275 145.364 197.275 147.712V149.869C197.275 150.048 197.212 150.221 197.098 150.358L188.887 160.209H191.451L198.212 152.096C198.276 152.017 198.354 151.951 198.443 151.902C198.532 151.854 198.63 151.824 198.731 151.814C198.832 151.803 198.934 151.813 199.031 151.843C199.128 151.873 199.218 151.921 199.296 151.986C199.374 152.051 199.438 152.131 199.485 152.221C199.531 152.311 199.56 152.41 199.568 152.511C199.576 152.612 199.564 152.713 199.532 152.81C199.501 152.906 199.45 152.995 199.384 153.072L193.438 160.209H197.275C199.498 160.206 201.63 159.322 203.203 157.749C204.775 156.177 205.66 154.045 205.662 151.821V149.534C205.662 149.408 205.693 149.284 205.752 149.174C205.812 149.063 205.897 148.968 206.002 148.899L207.338 148.009Z" stroke="#173C53"/>
<path d="M88.559 137.629L149.873 115.5M86.5089 134.262L147.823 112.133M85.1268 130.585L146.441 108.456" stroke="#173C53" stroke-width="0.5"/>
</svg>
