<svg width="141" height="145" viewBox="0 0 141 145" fill="none" xmlns="http://www.w3.org/2000/svg">
<path d="M2.89773 133V111.182H9.93963C11.4879 111.182 12.7805 111.462 13.8175 112.023C14.8615 112.577 15.6463 113.348 16.1719 114.335C16.7045 115.315 16.9709 116.441 16.9709 117.712C16.9709 118.984 16.7045 120.106 16.1719 121.079C15.6463 122.052 14.8651 122.812 13.8281 123.359C12.7912 123.906 11.5057 124.179 9.97159 124.179H3.97372V122.357H9.91832C11.0547 122.357 11.9993 122.169 12.7521 121.793C13.5121 121.416 14.0767 120.88 14.446 120.184C14.8224 119.488 15.0107 118.664 15.0107 117.712C15.0107 116.761 14.8224 115.93 14.446 115.219C14.0696 114.502 13.5014 113.948 12.7415 113.558C11.9886 113.167 11.0369 112.972 9.88636 112.972H4.88992V133H2.89773ZM12.5178 123.156L17.8871 133H15.5859L10.2699 123.156H12.5178ZM27.8693 133.341C26.3423 133.341 25.0213 132.986 23.9062 132.276C22.7912 131.558 21.9283 130.567 21.3175 129.303C20.7138 128.032 20.4119 126.569 20.4119 124.914C20.4119 123.266 20.7138 121.803 21.3175 120.525C21.9283 119.239 22.7699 118.234 23.8423 117.51C24.9219 116.778 26.1683 116.413 27.5817 116.413C28.4695 116.413 29.3253 116.576 30.1491 116.903C30.973 117.222 31.7116 117.716 32.3651 118.384C33.0256 119.044 33.5476 119.879 33.9311 120.887C34.3146 121.888 34.5064 123.075 34.5064 124.445V125.383H21.7223V123.71H32.5675C32.5675 122.659 32.3544 121.714 31.9283 120.876C31.5092 120.031 30.9233 119.364 30.1705 118.874C29.4247 118.384 28.5618 118.138 27.5817 118.138C26.5447 118.138 25.6321 118.415 24.8438 118.969C24.0554 119.523 23.4375 120.255 22.9901 121.164C22.5497 122.073 22.326 123.067 22.3189 124.147V125.148C22.3189 126.448 22.5426 127.585 22.9901 128.558C23.4446 129.523 24.0874 130.273 24.9183 130.805C25.7493 131.338 26.733 131.604 27.8693 131.604C28.6435 131.604 29.3217 131.484 29.9041 131.242C30.4936 131.001 30.9872 130.678 31.3849 130.273C31.7898 129.861 32.0952 129.41 32.3011 128.92L34.1016 129.506C33.853 130.195 33.4446 130.83 32.8764 131.413C32.3153 131.995 31.6122 132.464 30.767 132.819C29.929 133.167 28.9631 133.341 27.8693 133.341ZM43.2555 133.373C42.2683 133.373 41.3663 133.181 40.5495 132.798C39.7328 132.407 39.0829 131.846 38.6 131.114C38.117 130.376 37.8755 129.481 37.8755 128.43C37.8755 127.62 38.0282 126.938 38.3336 126.384C38.639 125.83 39.0723 125.376 39.6333 125.021C40.1944 124.665 40.8585 124.385 41.6255 124.179C42.3926 123.973 43.2377 123.813 44.161 123.7C45.0772 123.586 45.8514 123.487 46.4835 123.401C47.1227 123.316 47.6092 123.181 47.943 122.996C48.2768 122.812 48.4437 122.513 48.4437 122.102V121.718C48.4437 120.603 48.1099 119.726 47.4423 119.087C46.7818 118.44 45.8301 118.117 44.5872 118.117C43.4082 118.117 42.4458 118.376 41.7001 118.895C40.9615 119.413 40.443 120.024 40.1447 120.727L38.3443 120.077C38.7136 119.183 39.225 118.469 39.8784 117.936C40.5318 117.396 41.2633 117.009 42.073 116.775C42.8826 116.533 43.7029 116.413 44.5339 116.413C45.1589 116.413 45.8088 116.494 46.4835 116.658C47.1653 116.821 47.7974 117.105 48.3798 117.51C48.9622 117.908 49.4345 118.465 49.7967 119.183C50.1589 119.893 50.34 120.795 50.34 121.888V133H48.4437V130.411H48.3265C48.0993 130.894 47.7619 131.363 47.3145 131.817C46.867 132.272 46.3059 132.645 45.6312 132.936C44.9565 133.227 44.1646 133.373 43.2555 133.373ZM43.5112 131.636C44.5197 131.636 45.3933 131.413 46.1319 130.965C46.8706 130.518 47.4387 129.925 47.8365 129.186C48.2413 128.44 48.4437 127.62 48.4437 126.725V124.36C48.3017 124.495 48.0637 124.616 47.7299 124.722C47.4032 124.829 47.0233 124.925 46.59 125.01C46.1639 125.088 45.7377 125.156 45.3116 125.212C44.8855 125.269 44.502 125.319 44.161 125.362C43.2377 125.475 42.4494 125.653 41.796 125.894C41.1426 126.136 40.6419 126.469 40.2939 126.896C39.9458 127.315 39.7718 127.854 39.7718 128.515C39.7718 129.509 40.127 130.28 40.8372 130.827C41.5474 131.366 42.4387 131.636 43.5112 131.636ZM61.2757 133.341C59.9334 133.341 58.758 132.986 57.7495 132.276C56.7409 131.565 55.9526 130.575 55.3844 129.303C54.8233 128.032 54.5428 126.551 54.5428 124.861C54.5428 123.178 54.8233 121.704 55.3844 120.44C55.9526 119.168 56.7445 118.181 57.7601 117.478C58.7757 116.768 59.9583 116.413 61.3077 116.413C62.302 116.413 63.1294 116.59 63.79 116.945C64.4505 117.293 64.9796 117.727 65.3773 118.245C65.775 118.763 66.084 119.268 66.3042 119.758H66.4746V111.182H68.3816V133H66.5279V129.964H66.3042C66.084 130.461 65.7715 130.972 65.3667 131.498C64.9618 132.016 64.4256 132.453 63.758 132.808C63.0975 133.163 62.2701 133.341 61.2757 133.341ZM61.4995 131.604C62.5577 131.604 63.4597 131.317 64.2054 130.741C64.9512 130.159 65.5194 129.36 65.91 128.344C66.3077 127.322 66.5066 126.15 66.5066 124.829C66.5066 123.522 66.3113 122.368 65.9206 121.366C65.53 120.358 64.9618 119.57 64.2161 119.001C63.4703 118.426 62.5648 118.138 61.4995 118.138C60.4057 118.138 59.4824 118.437 58.7296 119.033C57.9838 119.623 57.4157 120.422 57.025 121.43C56.6415 122.439 56.4498 123.572 56.4498 124.829C56.4498 126.1 56.6451 127.247 57.0357 128.27C57.4263 129.293 57.9945 130.106 58.7402 130.71C59.4931 131.306 60.4128 131.604 61.4995 131.604ZM91.361 111.182V133H87.8453L77.5648 118.138H77.3837V133H73.4313V111.182H76.9682L87.2381 126.054H87.4299V111.182H91.361ZM102.741 133.32C101.101 133.32 99.6839 132.979 98.4908 132.297C97.3047 131.608 96.392 130.635 95.7528 129.378C95.1136 128.114 94.794 126.626 94.794 124.914C94.794 123.231 95.1136 121.754 95.7528 120.482C96.3991 119.204 97.3011 118.21 98.4588 117.499C99.6165 116.782 100.977 116.423 102.539 116.423C103.548 116.423 104.499 116.587 105.394 116.913C106.296 117.233 107.092 117.73 107.781 118.405C108.477 119.08 109.023 119.939 109.421 120.983C109.819 122.02 110.018 123.256 110.018 124.69V125.873H96.6051V123.273H106.321C106.314 122.535 106.154 121.878 105.842 121.303C105.529 120.72 105.092 120.262 104.531 119.928C103.977 119.594 103.331 119.428 102.592 119.428C101.804 119.428 101.112 119.619 100.515 120.003C99.9183 120.379 99.4531 120.876 99.1193 121.494C98.7926 122.105 98.6257 122.776 98.6186 123.508V125.777C98.6186 126.729 98.7926 127.545 99.1406 128.227C99.4886 128.902 99.9751 129.42 100.6 129.783C101.225 130.138 101.957 130.315 102.795 130.315C103.356 130.315 103.864 130.237 104.318 130.081C104.773 129.918 105.167 129.68 105.501 129.367C105.835 129.055 106.087 128.668 106.257 128.206L109.858 128.611C109.631 129.562 109.197 130.393 108.558 131.104C107.926 131.807 107.116 132.354 106.129 132.744C105.142 133.128 104.013 133.32 102.741 133.32ZM126.214 120.962L122.698 121.345C122.599 120.99 122.425 120.656 122.176 120.344C121.934 120.031 121.608 119.779 121.196 119.587C120.784 119.396 120.28 119.3 119.683 119.3C118.881 119.3 118.206 119.474 117.659 119.822C117.119 120.17 116.853 120.621 116.86 121.175C116.853 121.651 117.027 122.038 117.382 122.336C117.744 122.634 118.341 122.879 119.172 123.071L121.963 123.668C123.511 124.001 124.662 124.531 125.415 125.255C126.175 125.979 126.558 126.928 126.565 128.099C126.558 129.129 126.256 130.038 125.66 130.827C125.07 131.608 124.25 132.219 123.199 132.659C122.148 133.099 120.94 133.32 119.577 133.32C117.574 133.32 115.961 132.901 114.74 132.062C113.518 131.217 112.79 130.042 112.556 128.536L116.317 128.174C116.487 128.913 116.849 129.47 117.403 129.847C117.957 130.223 118.678 130.411 119.566 130.411C120.482 130.411 121.217 130.223 121.771 129.847C122.332 129.47 122.613 129.005 122.613 128.451C122.613 127.982 122.432 127.595 122.069 127.29C121.714 126.984 121.16 126.75 120.407 126.587L117.616 126.001C116.047 125.674 114.885 125.124 114.133 124.349C113.38 123.568 113.007 122.581 113.014 121.388C113.007 120.379 113.28 119.506 113.834 118.767C114.395 118.021 115.173 117.446 116.167 117.041C117.169 116.629 118.323 116.423 119.63 116.423C121.547 116.423 123.057 116.832 124.157 117.648C125.265 118.465 125.951 119.57 126.214 120.962ZM137.916 116.636V119.619H128.509V116.636H137.916ZM130.832 112.716H134.688V128.078C134.688 128.597 134.767 128.994 134.923 129.271C135.086 129.541 135.299 129.726 135.562 129.825C135.825 129.925 136.116 129.974 136.436 129.974C136.677 129.974 136.897 129.957 137.096 129.921C137.302 129.886 137.458 129.854 137.565 129.825L138.215 132.84C138.009 132.911 137.714 132.989 137.33 133.075C136.954 133.16 136.492 133.21 135.945 133.224C134.98 133.252 134.11 133.107 133.335 132.787C132.561 132.46 131.947 131.956 131.492 131.274C131.045 130.592 130.825 129.74 130.832 128.717V112.716Z" fill="#2595DC"/>
<path d="M111.301 73.7775L62.9117 90.4825C60.4082 91.3468 57.664 91.1812 55.2826 90.0221C52.9013 88.863 51.0779 86.8054 50.2137 84.3019M50.2137 84.3019L38.7222 51.0151C34.8313 39.7446 32.8865 34.1112 34.3787 29.1675C36.7037 20.6872 48.2561 17.3662 56.4828 14.5261C60.1717 13.2527 64.7275 11.8954 68.4673 10.6592C76.588 7.98656 83.0965 5.60888 89.8531 3.27634C90.5929 5.41936 100.197 33.2405 100.197 33.2405C102.627 40.2784 103.842 43.7974 103.647 46.9664C103.522 49.061 102.985 51.1105 102.067 52.9977C101.15 54.8849 99.8697 56.5729 98.2998 57.9653C95.9209 60.0712 92.4019 61.286 85.364 63.7157L55.1582 74.1435C53.1554 74.8349 51.5093 76.2936 50.582 78.1987C49.6548 80.1038 49.5223 82.2992 50.2137 84.3019Z" stroke="#2595DC" stroke-width="6" stroke-linecap="round" stroke-linejoin="round"/>
<path d="M50.945 82.6361L39.686 50.0227C35.8738 38.9801 33.9684 33.4607 35.4304 28.617C37.7083 20.3082 49.027 17.0544 57.0874 14.2718C60.7016 13.0241 65.1653 11.6942 68.8294 10.4831C76.7858 7.8645 83.1627 5.53491 89.7826 3.24956C90.5074 5.34923 99.9177 32.6076 99.9177 32.6076C102.298 39.5032 103.488 42.951 103.298 46.0558C103.175 48.1081 102.649 50.1161 101.75 51.9651C100.851 53.8142 99.5966 55.468 98.0584 56.8322C95.7276 58.8955 92.2798 60.0858 85.3843 62.4663L55.7895 72.6832C53.8272 73.3606 52.2144 74.7898 51.3059 76.6563C50.3974 78.5229 50.2676 80.6739 50.945 82.6361Z" fill="white"/>
<path d="M54.6415 87.9855L105.764 69.2997M52.9106 85.1428L104.68 66.4586M51.7436 82.0383L103.654 63.3894" stroke="#2595DC" stroke-width="0.5"/>
</svg>
